# xmcd
#
# Track frame offsets:
#	150
#	18710
#	33355
#	50997
#	70120
#	82185
#	94560
#	114980
#	125802
#	137135
#	148727
#	163240
#	174760
#	190595
#	206460
#	220740
#	236705
#	248070
#	270772
#	281962
#
# Disc length: 3920
#
# Revision: 1
# Processed by: cddbd v1.5.1PL0 Copyright (c) Steve Scherf et al.
# Submitted via: AudioConverter v4.05 Copyright (c) Dennis Rebentrost
# Normalized: r0:TDELIM( - )
#
DISCID=290f4e14
DTITLE=Various Artist - The Best Country Album In The World ... Ever - Disc2
DYEAR=1996
DGENRE=Country
TTITLE0=Juice Newton - Angel in the Morning
TTITLE1=Roger Whittaker - I Don't believe in if anymore
TTITLE2=James Taylor - Carolina in my mind
TTITLE3=Bobby Gentry - Ode to Billie Joe
TTITLE4=Tammy Wynette - Stand by Your Man
TTITLE5=Joe Dolan - Teresa
TTITLE6=Suzy Bogguss - Take it to the limit
TTITLE7=Willie Nelson - Hello Walls
TTITLE8=Crystal Gayle - Don't It Make My Brown Eyes Blue
TTITLE9=Johnny Cash - I walk the line
TTITLE10=Frankie Laine - Jalousie
TTITLE11=Bobby Gentry and Glen Cambell - All I Have to Do Is Dream
TTITLE12=The Band - The Night They Drove Old Dixie Down
TTITLE13=Billy Jo Spears - Blanket on the Ground
TTITLE14=Bobby Angel - You asked me to
TTITLE15=Joe South - Games People Play
TTITLE16=Barbara Ray - I don't wanna play house
TTITLE17=Tommy Dell - Teddy Bear
TTITLE18=Sonny James - Young Love
TTITLE19=Hank Williams - Your cheatin' heart
EXTD=
EXTT0=
EXTT1=
EXTT2=
EXTT3=
EXTT4=
EXTT5=
EXTT6=
EXTT7=
EXTT8=
EXTT9=
EXTT10=
EXTT11=
EXTT12=
EXTT13=
EXTT14=
EXTT15=
EXTT16=
EXTT17=
EXTT18=
EXTT19=
PLAYORDER=
